<?xml version="1.0" encoding="utf-8"?>
<!-- Generator: Adobe Illustrator 23.1.0, SVG Export Plug-In . SVG Version: 6.00 Build 0)  -->
<svg version="1.1" id="Слой_1" xmlns="http://www.w3.org/2000/svg" xmlns:xlink="http://www.w3.org/1999/xlink" x="0px" y="0px"
	 viewBox="0 0 37.3 37.3" enable-background="new 0 0 37.3 37.3" xml:space="preserve">
<g>
	<circle fill="#0388EF" cx="18.7" cy="18.7" r="18.7"/>
	<path fill-rule="evenodd" clip-rule="evenodd" fill="#FFFFFF" d="M28.3,23.3h-1.6v-1c0-0.7-0.2-1.3-0.6-1.8c-0.3-0.4-0.6-0.7-1-0.9
		c-0.4-0.2-0.9-0.4-1.5-0.4c-1.6,0-3,1.3-3.1,2.9v1.4h-4.5v-1.4c-0.1-0.6-0.3-1.1-0.6-1.6c-0.3-0.4-0.6-0.7-1-0.9
		c-0.4-0.2-0.9-0.4-1.5-0.4c-1.7,0-3.1,1.4-3.1,3.1c0,0,0,0,0,0.1c0,0,0,0,0,0h0v0.9H7.6c0.1-0.2,0.1-0.4,0.1-0.6
		c0-0.3-0.1-0.7-0.3-0.9h0.7v-4.5l4.7-0.4l2.3-4.2l12.6,0.1l0,8.8h0.5c-0.1,0.2-0.1,0.4-0.1,0.6C28.1,22.7,28.2,23,28.3,23.3z
		 M19.4,14.1L15.8,14l-1.8,3.1H15h3.5l0.9,0.9V14.1z M12.9,19.6c0.5,0,0.9,0.1,1.3,0.3c0.4,0.2,0.7,0.5,0.9,0.8
		c0.3,0.5,0.6,1,0.6,1.7c0,1.5-1.2,2.8-2.8,2.8c-1.5,0-2.8-1.3-2.8-2.8c0,0,0,0,0,0C10.2,20.9,11.4,19.6,12.9,19.6z M11.2,22.5
		c0,1,0.8,1.7,1.7,1.7c1,0,1.7-0.8,1.7-1.7c0-0.4-0.1-0.7-0.3-1c-0.2-0.2-0.4-0.4-0.6-0.5c-0.2-0.1-0.5-0.2-0.8-0.2
		C12,20.8,11.2,21.5,11.2,22.5C11.2,22.5,11.2,22.5,11.2,22.5z M23.6,19.7c0.5,0,0.9,0.1,1.3,0.3c0.4,0.2,0.7,0.5,0.9,0.8
		c0.4,0.5,0.6,1,0.6,1.7c0,1.5-1.2,2.8-2.8,2.8c-1.5,0-2.8-1.2-2.8-2.8c0,0,0,0,0,0C20.8,21,22.1,19.7,23.6,19.7z M21.9,22.6
		c0,1,0.8,1.7,1.7,1.7c1,0,1.7-0.8,1.7-1.7c0-0.4-0.1-0.7-0.4-1c-0.2-0.2-0.3-0.4-0.6-0.5c-0.2-0.1-0.5-0.2-0.8-0.2
		C22.7,20.9,21.9,21.6,21.9,22.6C21.9,22.6,21.9,22.6,21.9,22.6z"/>
</g>
</svg>
