<?xml version="1.0" encoding="utf-8"?>
<!-- Generator: Adobe Illustrator 23.1.0, SVG Export Plug-In . SVG Version: 6.00 Build 0)  -->
<svg version="1.1" id="Слой_1" xmlns="http://www.w3.org/2000/svg" xmlns:xlink="http://www.w3.org/1999/xlink" x="0px" y="0px"
	 viewBox="0 0 33.6 33.7" enable-background="new 0 0 33.6 33.7" xml:space="preserve">
<g>
	<circle fill="#0FE994" cx="16.8" cy="16.8" r="16.8"/>
	<path fill-rule="evenodd" clip-rule="evenodd" fill="#FFFFFF" d="M8.2,21.6l0.8-2c0,0,1.2,0.9,3.6,1.5c0.7,0.2,1.5,0.3,2.4,0.4
		c1.1,0.1,2.3,0.1,3.5,0c0.8-0.1,1.6-0.2,2.4-0.4c1.2-0.3,2.2-0.7,3.5-1.3l0.8,1.8C17.1,26.4,8.2,21.6,8.2,21.6z M18.3,20.9
		c-1.1,0.1-2.2,0.1-3.2,0c-0.8-0.1-1.5-0.2-2.2-0.4c-2.1-0.5-3.4-1.3-3.4-1.3c2.5-1.1,2.6-6.1,2.6-6.1h0c0-0.1,0-0.2,0-0.4
		c0-2.7,2-4.9,4.5-4.9c2.5,0,4.6,2.2,4.6,4.9c0,0.1,0,0.1,0,0.2l0,0c0.2,4.4,2.7,6.3,2.7,6.3c-1.2,0.6-2.3,1-3.4,1.3
		C19.7,20.7,19,20.8,18.3,20.9z M18.1,24.7C18.1,24.7,18.1,24.8,18.1,24.7c0,0.9-0.6,1.6-1.4,1.6c-0.8,0-1.4-0.7-1.4-1.6
		c0,0,0,0,0,0C16.2,24.9,17.1,24.9,18.1,24.7z"/>
</g>
</svg>
