<?xml version="1.0" encoding="utf-8"?>
<!-- Generator: Adobe Illustrator 23.1.0, SVG Export Plug-In . SVG Version: 6.00 Build 0)  -->
<svg version="1.1" id="Слой_1" xmlns="http://www.w3.org/2000/svg" xmlns:xlink="http://www.w3.org/1999/xlink" x="0px" y="0px"
	 viewBox="0 0 33.6 33.7" enable-background="new 0 0 33.6 33.7" xml:space="preserve">
<g>
	<path fill-rule="evenodd" clip-rule="evenodd" fill="#FD60E5" d="M16.8,0c9.3,0,16.8,7.5,16.8,16.8s-7.5,16.8-16.8,16.8
		S0,26.1,0,16.8S7.5,0,16.8,0z"/>
	<path fill-rule="evenodd" clip-rule="evenodd" fill="#FFFFFF" d="M25.7,14.8c0,0-0.1-2.7-0.1-4c0,0,0.3-2.9-1.9-1.7
		c0,0-3.6,0.8-6.2,6.7c0-0.1-0.2-0.2-0.4-0.2c0.2-1,0.8-3.9,1.9-4.5c0.1,0.1,0.1,0.1,0.2,0.1c0.2,0,0.3-0.1,0.3-0.3
		c0-0.2-0.1-0.3-0.3-0.3c-0.1,0-0.3,0.1-0.3,0.3c0,0,0,0,0,0c-1.1,0.7-1.8,3.6-1.9,4.6c0,0-0.1,0-0.1,0c0,0-0.1,0-0.1,0
		c-0.2-1-0.8-3.9-2-4.6c0,0,0,0,0,0c0-0.2-0.1-0.3-0.3-0.3c-0.2,0-0.3,0.1-0.3,0.3c0,0.2,0.1,0.3,0.3,0.3c0.1,0,0.2,0,0.2-0.1
		c1.1,0.6,1.7,3.5,1.9,4.5c-0.2,0-0.3,0.1-0.4,0.2c-2.6-5.7-6.2-6.6-6.2-6.6C7.9,8,8.2,10.8,8.2,10.8c0,1.3-0.1,4-0.1,4
		c-0.3,2.4,2.8,2.8,2.8,2.8c-4.1,0.5-1.7,4.3-1.7,4.3c1.5,1.3,1.7,2.9,1.7,2.9c0.5-0.3,1.2,0.5,1.2,0.5c0.6-0.9,1.1-0.7,1.1-0.7
		c1.3-0.9,2.4-2.5,3-3.4v0.2c0,0.1,0.1,0.2,0.3,0.3V22c0,0.2,0.1,0.3,0.3,0.3c0.2,0,0.3-0.1,0.3-0.3v-0.1c0.2-0.1,0.3-0.2,0.3-0.3
		v-0.4c0.6,0.9,1.7,2.6,3.1,3.5c0,0,0.5-0.2,1.1,0.6c0,0,0.7-0.9,1.2-0.5c0,0,0.2-1.7,1.7-2.9c0,0,2.4-3.8-1.7-4.3
		C22.9,17.6,26,17.2,25.7,14.8z"/>
</g>
</svg>
