<?xml version="1.0" encoding="utf-8"?>
<!-- Generator: Adobe Illustrator 23.1.0, SVG Export Plug-In . SVG Version: 6.00 Build 0)  -->
<svg version="1.1" id="Слой_1" xmlns="http://www.w3.org/2000/svg" xmlns:xlink="http://www.w3.org/1999/xlink" x="0px" y="0px"
	 viewBox="0 0 33.6 33.6" enable-background="new 0 0 33.6 33.6" xml:space="preserve">
<g>
	<circle fill="#7A60FD" cx="16.8" cy="16.8" r="16.8"/>
	<path fill-rule="evenodd" clip-rule="evenodd" fill="#FFFFFF" d="M22.4,14.7c0,0.2-0.4,0.5-0.8,0.5c0,0,0,0,0,0h-0.2H12h-0.1v0
		c-0.5,0-0.9-0.2-0.9-0.5c0-0.2,0.1-0.3,0.4-0.4c0,0,0-0.1,0-0.1c0-0.1,0.1-0.2,0.1-0.3c-0.1-0.4-0.1-0.8-0.1-1.2
		c0-3,2.4-5.5,5.4-5.5c3,0,5.4,2.5,5.4,5.5c0,0.4-0.1,0.9-0.1,1.3c0.1,0.1,0.2,0.2,0.2,0.4c0,0,0,0,0,0.1
		C22.3,14.5,22.4,14.6,22.4,14.7z M16.8,8.7c3,2,3.4,4.4,3.4,4.4C20.8,8.3,16.8,8.7,16.8,8.7z M21.4,16.6l-4.9,11.9l-4.4-11.9
		L12,16.3h9.5L21.4,16.6z"/>
</g>
</svg>
