<?xml version="1.0" encoding="utf-8"?>
<!-- Generator: Adobe Illustrator 23.1.0, SVG Export Plug-In . SVG Version: 6.00 Build 0)  -->
<svg version="1.1" id="Слой_1" xmlns="http://www.w3.org/2000/svg" xmlns:xlink="http://www.w3.org/1999/xlink" x="0px" y="0px"
	 viewBox="0 0 34 33" enable-background="new 0 0 34 33" xml:space="preserve">
<g transform="matrix(1, 0, 0, 1, 0.009109, 50.007999)">
	<path fill-rule="evenodd" clip-rule="evenodd" fill="#8C8C8C" d="M2.4-50h29.3c1.3,0,2.4,1.1,2.4,2.4v28.2c0,1.3-1.1,2.4-2.4,2.4
		H2.4C1-17.1,0-18.1,0-19.4v-28.2C0-48.9,1-50,2.4-50z"/>
	<g>
		<path fill-rule="evenodd" clip-rule="evenodd" fill="#FFFFFF" d="M17.3-29.2c0.5,0,0.9,0.4,0.9,0.9v4.6c0,0.5-0.4,0.9-0.9,0.9
			s-0.9-0.4-0.9-0.9v-4.6C16.4-28.8,16.8-29.2,17.3-29.2z"/>
		<path opacity="0.5" fill-rule="evenodd" clip-rule="evenodd" fill="#FFFFFF" enable-background="new    " d="M28.2-33.6
			c0,0.5-0.4,0.9-0.9,0.9h-4.6c-0.5,0-0.9-0.4-0.9-0.9c0-0.5,0.4-0.9,0.9-0.9h4.6C27.8-34.5,28.2-34.1,28.2-33.6z"/>
		<path fill-rule="evenodd" clip-rule="evenodd" fill="#FFFFFF" d="M12.6-33.6c0,0.5-0.4,0.9-0.9,0.9H7.1c-0.5,0-0.9-0.4-0.9-0.9
			c0-0.5,0.4-0.9,0.9-0.9h4.6C12.2-34.5,12.6-34.1,12.6-33.6z"/>
		<path fill-rule="evenodd" clip-rule="evenodd" fill="#FFFFFF" d="M14.8-29.8c0.4,0.3,0.6,0.8,0.3,1.3l-2.4,4
			c-0.3,0.4-0.8,0.6-1.3,0.3s-0.6-0.8-0.3-1.3l2.4-4C13.8-29.9,14.3-30.1,14.8-29.8z"/>
		<path opacity="0.6" fill-rule="evenodd" clip-rule="evenodd" fill="#FFFFFF" enable-background="new    " d="M26.6-28
			c-0.3,0.4-0.8,0.6-1.3,0.3l-4-2.4c-0.4-0.3-0.6-0.8-0.3-1.3c0.3-0.4,0.8-0.6,1.3-0.3l4,2.4C26.7-29,26.9-28.4,26.6-28z"/>
		<path fill-rule="evenodd" clip-rule="evenodd" fill="#FFFFFF" d="M13.3-35.8c-0.3,0.4-0.8,0.6-1.3,0.3l-4-2.4
			c-0.4-0.3-0.6-0.8-0.3-1.3C8-39.6,8.6-39.7,9-39.5l4,2.4C13.4-36.8,13.5-36.3,13.3-35.8z"/>
		<path opacity="0.3" fill-rule="evenodd" clip-rule="evenodd" fill="#FFFFFF" enable-background="new    " d="M26.8-38.8
			c0.2,0.4,0.1,1-0.4,1.3l-4,2.2c-0.4,0.2-1,0.1-1.3-0.4c-0.2-0.4-0.1-1,0.4-1.3l4-2.2C26-39.4,26.6-39.3,26.8-38.8z"/>
		<path fill-rule="evenodd" clip-rule="evenodd" fill="#FFFFFF" d="M13.2-31.5c0.2,0.4,0.1,1-0.4,1.3L8.8-28c-0.4,0.2-1,0.1-1.3-0.4
			c-0.2-0.4-0.1-1,0.4-1.3l4.1-2.2C12.4-32.1,12.9-31.9,13.2-31.5z"/>
		<path opacity="0.8" fill-rule="evenodd" clip-rule="evenodd" fill="#FFFFFF" enable-background="new    " d="M22.6-24.1
			c-0.4,0.2-1,0.1-1.3-0.4l-2.2-4.1c-0.2-0.4-0.1-1,0.4-1.3c0.4-0.2,1-0.1,1.3,0.4l2.2,4C23.2-24.9,23-24.3,22.6-24.1z"/>
		<path fill-rule="evenodd" clip-rule="evenodd" fill="#FFFFFF" d="M14.9-37.4c-0.4,0.2-1,0.1-1.3-0.4l-2.2-4
			c-0.2-0.4-0.1-1,0.4-1.3c0.4-0.2,1-0.1,1.3,0.4l2.2,4C15.5-38.2,15.3-37.6,14.9-37.4z"/>
		<path fill-rule="evenodd" clip-rule="evenodd" fill="#FFFFFF" d="M17-44.4c0.5,0,0.9,0.4,0.9,0.9v4.6c0,0.5-0.4,0.9-0.9,0.9
			c-0.5,0-0.9-0.4-0.9-0.9v-4.6C16.1-44,16.5-44.4,17-44.4z"/>
	</g>
</g>
</svg>
