<?xml version="1.0" encoding="utf-8"?>
<!-- Generator: Adobe Illustrator 23.1.0, SVG Export Plug-In . SVG Version: 6.00 Build 0)  -->
<svg version="1.1" id="Слой_1" xmlns="http://www.w3.org/2000/svg" xmlns:xlink="http://www.w3.org/1999/xlink" x="0px" y="0px"
	 viewBox="0 0 107.6 36.7" enable-background="new 0 0 107.6 36.7" xml:space="preserve">
<path fill="#FFFFFF" d="M103.7,29.2c-0.9,2.2-2.1,2.9-3.3,2.9c-0.4,0-0.7-0.1-1.1-0.1v-1.6c0.3,0.1,0.6,0.1,0.8,0.1
	c0.9,0,1.6-0.6,2.1-1.9l0.2-0.4l-3.9-8.4h2l2.8,6.3l2.5-6.3h1.9L103.7,29.2z M95.7,22.9c0-1.1-0.6-1.7-1.6-1.7
	c-0.9,0-1.6,0.6-2.1,1.1c0,0.2,0,0.4,0,0.6v5.2h-1.8v-5.1c0-1.1-0.6-1.7-1.6-1.7s-1.8,0.7-2.2,1.3v5.6h-1.8v-8.3h1.6v1
	c0.4-0.5,1.4-1.3,2.8-1.3c1.2,0,2.1,0.5,2.6,1.3c0.7-0.7,1.7-1.3,2.9-1.3c2.2,0,3.1,1.6,3.1,3.3v5.2h-1.8V22.9z M76.4,24.6
	c0.2,1.5,1.7,2.1,3.2,2.1c1,0,1.9-0.2,2.6-0.6v1.6c-0.8,0.4-1.8,0.6-3,0.6c-2.5,0-4.7-1.5-4.7-4.4c0-3,2.3-4.4,4.2-4.4
	c3.3,0,4.4,2.7,3.9,5.1H76.4z M78.8,21.1c-1.2,0-2.4,0.7-2.4,2.1h4.6C81,22.5,80.6,21.1,78.8,21.1z M71,26.8
	c-0.6,0.8-1.6,1.5-3.2,1.5c-2.5,0-4.1-2-4.1-4.4s1.6-4.4,4.1-4.4c1.5,0,2.4,0.6,3,1.3V16h1.8v12.1H71V26.8z M70.8,22.9
	c-0.4-0.9-1.3-1.7-2.6-1.7c-1.5,0-2.6,1.1-2.6,2.7c0,1.6,1.1,2.7,2.6,2.7c1.3,0,2.2-0.8,2.6-1.7V22.9z M70.8,1.4h1.8v12.1h-1.8V1.4z
	 M66.3,8.4c0-1.1-0.6-1.7-1.6-1.7c-0.9,0-1.6,0.6-2.1,1.1c0,0.2,0,0.4,0,0.6v5.2h-1.8V8.4c0-1.1-0.6-1.7-1.6-1.7
	c-1,0-1.8,0.7-2.2,1.3v5.6h-1.8V5.2h1.6v1C57.2,5.8,58.1,5,59.5,5c1.2,0,2.1,0.5,2.6,1.3C62.8,5.6,63.8,5,65,5
	c2.2,0,3.1,1.6,3.1,3.3v5.2h-1.8V8.4z M57.8,21.2c-1.2,0-2.2,0.3-3,0.6v-1.7c0.7-0.2,1.8-0.6,3.2-0.6c2.4,0,3.8,1.1,3.8,3.6v3
	c0,0.5,0.3,0.6,0.6,0.6c0.2,0,0.4-0.1,0.6-0.1V28c-0.3,0.1-0.8,0.2-1.2,0.2c-0.8,0-1.4-0.3-1.7-1c-0.8,0.7-1.8,1.1-3.1,1.1
	c-1.5,0-2.9-0.8-2.9-2.5c0-2.1,2-2.8,3.7-2.8c0.7,0,1.5,0.1,2.2,0.2v-0.3C60,21.9,59.2,21.2,57.8,21.2z M58.2,24.3
	c-1.1,0-2.2,0.3-2.2,1.4c0,0.8,0.7,1.2,1.6,1.2c0.9,0,1.7-0.3,2.4-1v-1.4C59.5,24.4,58.8,24.3,58.2,24.3z M47.9,11V6.9h-1.5V5.2h1.5
	V2.7l1.8-0.4v3h3v1.6h-3v3.8c0,1.1,0.5,1.5,1.6,1.5c0.6,0,1.2-0.1,1.7-0.3v1.6c-0.6,0.2-1.4,0.4-2.2,0.4C49.1,13.7,47.9,13,47.9,11z
	 M50.3,19.5c0.9,0,1.8,0.2,2.6,0.6v1.7c-0.6-0.4-1.5-0.7-2.3-0.7c-1.5,0-3,0.8-3,2.7c0,1.9,1.4,2.7,2.9,2.7c0.9,0,1.8-0.3,2.4-0.6
	v1.7c-0.8,0.4-1.7,0.6-2.7,0.6c-2.2,0-4.5-1.3-4.5-4.3C45.7,20.9,48.1,19.5,50.3,19.5z M42.1,27.2c-0.8,0.7-1.8,1.1-3.1,1.1
	c-1.5,0-2.9-0.8-2.9-2.5c0-2.1,2-2.8,3.7-2.8c0.7,0,1.5,0.1,2.2,0.2v-0.3c0-1-0.8-1.8-2.2-1.8c-1.2,0-2.2,0.3-3,0.6v-1.7
	c0.7-0.2,1.8-0.6,3.2-0.6c2.3,0,3.8,1.1,3.8,3.6v3c0,0.5,0.3,0.6,0.6,0.6c0.2,0,0.4-0.1,0.6-0.1V28c-0.3,0.1-0.8,0.2-1.2,0.2
	C43,28.2,42.4,27.9,42.1,27.2z M42,24.5c-0.5-0.1-1.2-0.2-1.8-0.2c-1.1,0-2.2,0.3-2.2,1.4c0,0.8,0.7,1.2,1.6,1.2
	c0.9,0,1.7-0.3,2.4-1V24.5z M42.8,8.6c0-1.3-0.8-2-1.9-2c-1.1,0-1.8,0.7-2.3,1.4v5.5h-1.8V1.4h1.8v4.7C39.2,5.5,40.1,5,41.2,5
	c2.1,0,3.4,1.4,3.4,3.4v5.1h-1.8V8.6z M0,28.1V1.5L14.5,0l0.2,0L29,1.5v26.5l-14.5,8.6L0,28.1z M27.1,3.2L14.5,1.9L1.9,3.2v10
	l12.5-7.5v0h0h0v0l12.7,7.5V3.2z M14.4,18.2l3.2,1.9l0,0l1-0.7l-4.2-2.5l0-1.3l5.3,3.2l0.9-0.5l0.1-0.1l0.1,0l-6.5-3.9l0-1.3
	l7.6,4.5l1.6-0.9l3.4-2L14.4,7.1v0L1.9,14.6l12.5,7.4l2.1-1.3l-2.1-1.2L14.4,18.2z M27.1,15.9l-3.9,2.3v3.3v0.5v0.4l0,0v1.3
	l-8.7,5.2l-8.6-5.2l0-1.3l8.6,5.1l0-1.4l-8.6-5.2l0-1.3l8.6,5.1l0-1.4L1.9,16.1V27l12.6,7.5L27.1,27V15.9z"/>
</svg>
