<?xml version="1.0" encoding="utf-8"?>
<!-- Generator: Adobe Illustrator 23.1.0, SVG Export Plug-In . SVG Version: 6.00 Build 0)  -->
<svg version="1.1" id="Слой_1" xmlns="http://www.w3.org/2000/svg" xmlns:xlink="http://www.w3.org/1999/xlink" x="0px" y="0px"
	 fill="#FFFFFF" viewBox="0 0 28.2 28.2" enable-background="new 0 0 28.2 28.2" xml:space="preserve">
<path fill-rule="evenodd" clip-rule="evenodd" d="M14.1,28.2C6.3,28.2,0,21.9,0,14.1S6.3,0,14.1,0
	s14.1,6.3,14.1,14.1S21.9,28.2,14.1,28.2z M21.3,8.6c0-0.9-0.7-1.6-1.6-1.6H8.7C7.8,7,7.1,7.7,7.1,8.6l0,11.1c0,0.9,0.7,1.6,1.6,1.6
	h11.1c0.9,0,1.6-0.7,1.6-1.6V8.6z M19.2,11.4h-1.7c-0.3,0-0.5-0.2-0.5-0.5V9.2c0-0.3,0.2-0.5,0.5-0.5h1.7c0.3,0,0.5,0.2,0.5,0.5v1.7
	C19.8,11.2,19.5,11.4,19.2,11.4z M14.2,16.7c-1.4,0-2.6-1.1-2.6-2.6c0-1.4,1.1-2.6,2.6-2.6c1.4,0,2.8,1,2.8,2.6
	C17,15.7,15.6,16.7,14.2,16.7z M14.2,18.6c2.4,0,4.4-2,4.4-4.4c0-0.4,0-0.8-0.1-1.1c0.8,0,1.2,0,1.2,0v6.1c0,0.3-0.2,0.5-0.6,0.5
	h-10c-0.3,0-0.6-0.2-0.6-0.5V13c0,0,0.3,0,1.2,0c-0.1,0.4-0.1,0.7-0.1,1.1C9.8,16.6,11.8,18.6,14.2,18.6z"/>
</svg>
