<?xml version="1.0" encoding="utf-8"?>
<!-- Generator: Adobe Illustrator 23.1.0, SVG Export Plug-In . SVG Version: 6.00 Build 0)  -->
<svg version="1.1" id="Слой_1" xmlns="http://www.w3.org/2000/svg" xmlns:xlink="http://www.w3.org/1999/xlink" x="0px" y="0px"
	 viewBox="0 0 34 33" enable-background="new 0 0 34 33" xml:space="preserve">
<g transform="matrix(1, 0, 0, 1, 0.009094, 0.007999)">
	<path fill-rule="evenodd" clip-rule="evenodd" fill="#8C8C8C" d="M2.4,0h29.3C32.9,0,34,1.1,34,2.4v28.2c0,1.3-1.1,2.4-2.4,2.4H2.4
		C1,32.9,0,31.9,0,30.6V2.4C0,1.1,1,0,2.4,0z"/>
	<path fill-rule="evenodd" clip-rule="evenodd" fill="#FFFFFF" d="M28.3,16.5L28.3,16.5L28.3,16.5L8,25.1V18L20,16.5l0.3,0l-0.3,0
		L8,15V7.9L28.3,16.5L28.3,16.5L28.3,16.5z"/>
</g>
</svg>
