<?xml version="1.0" encoding="utf-8"?>
<!-- Generator: Adobe Illustrator 23.1.0, SVG Export Plug-In . SVG Version: 6.00 Build 0)  -->
<svg version="1.1" id="Слой_1" xmlns="http://www.w3.org/2000/svg" xmlns:xlink="http://www.w3.org/1999/xlink" x="0px" y="0px"
	fill="#FF0000" viewBox="0 0 30.8 25.2" enable-background="new 0 0 30.8 25.2" xml:space="preserve">
<path fill-rule="evenodd" clip-rule="evenodd" d="M7.4,0c1.5,0,3,0.5,4.5,1.4c1.5,1,2.6,2.4,3.5,4.4
	c0.8-2,2-3.4,3.5-4.3c1.5-0.9,3-1.4,4.5-1.4c1,0,2,0.2,3,0.6c0.9,0.4,1.8,1,2.5,1.8c0.7,0.8,1.2,1.7,1.6,2.9c0.4,1.2,0.5,2.5,0.3,4
	c-0.2,1.8-1.1,3.6-2.7,5.4c-1.6,1.8-3.3,3.5-5.2,5.1c-1.9,1.5-4.4,3.3-7.5,5.2c-3.1-2-5.6-3.8-7.5-5.4c-1.9-1.5-3.6-3.2-5.2-5.1
	C1,12.9,0.1,11.1,0,9.5c-0.1-1.5,0-2.9,0.4-4.1c0.4-1.2,0.9-2.2,1.6-3C2.8,1.6,3.6,1,4.5,0.6C5.5,0.2,6.4,0,7.4,0z M19.9,3
	c-1.2,0.7-2.2,1.9-2.9,3.6c-0.6,0.7-1.1,1.1-1.7,1.1c-0.5,0-1.1-0.4-1.7-1.1c-0.6-1.5-1.5-2.7-2.6-3.5C10,2.2,8.7,1.8,7.4,1.8
	C6.7,1.8,6,2,5.3,2.3C4.6,2.6,4,3,3.5,3.5C2.9,4.2,2.4,5,2.2,6S1.8,8.1,1.8,9.4c0.1,1,0.6,2.1,1.5,3.3c0.9,1.2,2,2.5,3.4,3.8
	C8,17.6,9.4,18.8,11,20c1.6,1.2,3,2.2,4.4,3.1c1.4-0.9,2.8-1.9,4.3-3c1.5-1.2,3-2.4,4.3-3.6c1.3-1.2,2.5-2.5,3.4-3.8
	c0.9-1.3,1.4-2.4,1.5-3.4c0.1-1.2,0-2.2-0.2-3.2c-0.3-1-0.7-1.8-1.3-2.4c-0.5-0.6-1.1-1-1.8-1.3"/>
</svg>
