<?xml version="1.0" encoding="utf-8"?>
<!-- Generator: Adobe Illustrator 23.1.0, SVG Export Plug-In . SVG Version: 6.00 Build 0)  -->
<svg version="1.1" id="Слой_1" xmlns="http://www.w3.org/2000/svg" xmlns:xlink="http://www.w3.org/1999/xlink" x="0px" y="0px"
	fill="#FFFFFF" viewBox="0 0 28.2 28.2" enable-background="new 0 0 28.2 28.2" xml:space="preserve">
<path fill-rule="evenodd" clip-rule="evenodd" d="M14.1,28.2C6.3,28.2,0,21.9,0,14.1S6.3,0,14.1,0
	s14.1,6.3,14.1,14.1S21.9,28.2,14.1,28.2z M18.8,14.4c-0.5-0.5-1.1-0.8-1.8-1v-0.1c0.5-0.2,0.9-0.6,1.2-1c0.3-0.5,0.4-1,0.4-1.6
	c0-0.5-0.1-1-0.3-1.4c-0.2-0.4-0.5-0.7-1-0.9C17,8.2,16.5,8.1,16.1,8c-0.5-0.1-1.1-0.1-2-0.1H9.7v12.2h4.9c0.8,0,1.5-0.1,2.1-0.2
	c0.6-0.2,1.1-0.4,1.5-0.8c0.4-0.3,0.7-0.7,0.9-1.1c0.2-0.5,0.3-1,0.3-1.6C19.5,15.6,19.3,14.9,18.8,14.4z M15.5,17.7
	c-0.3,0.1-0.6,0.2-0.9,0.2c-0.3,0-0.9,0-1.7,0h-0.2v-3.1h0.6c0.5,0,1,0,1.3,0c0.3,0,0.6,0,0.8,0.1c0.3,0.1,0.5,0.3,0.7,0.5
	c0.2,0.2,0.2,0.5,0.2,0.9c0,0.3-0.1,0.6-0.2,0.8C16,17.4,15.8,17.6,15.5,17.7z M14.9,12.6c-0.2,0.1-0.4,0.2-0.7,0.2
	c-0.2,0-0.6,0-1.1,0h-0.4v-2.6H13c0.5,0,1,0,1.2,0c0.3,0,0.5,0.1,0.7,0.1c0.2,0.1,0.4,0.2,0.5,0.5c0.1,0.2,0.2,0.4,0.2,0.6
	c0,0.3,0,0.5-0.1,0.7C15.3,12.3,15.1,12.5,14.9,12.6z"/>
</svg>
